# xmcd CD database file
#
# Track frame offsets:
#	150
#	16023
#	31971
#	49719
#	66492
#	82365
#	97638
#	114936
#	127134
#	139782
#	153630
#	171603
#	185001
#	197424
#
# Disc length: 2877 seconds
#
# Revision: 0
# Processed by: cddbd v1.5.2PL0 Copyright (c) Steve Scherf et al.
# Submitted via: CDex 1.51
#
DISCID=c20b3b0e
DTITLE=Catherine Britt - Little WildFLower
DYEAR=2008
DGENRE=Country
TTITLE0=Catherine Britt - Little Wildflower
TTITLE1=Catherine Britt - Not Your Cinderalla
TTITLE2=Catherine Britt - What I Did Last Night
TTITLE3=Catherine Britt - Dirt Cheap
TTITLE4=Catherine Britt - If Only He Were You
TTITLE5=Catherine Britt - You Run
TTITLE6=Catherine Britt - That Ain't Me
TTITLE7=Catherine Britt and Tommy Emmanuel - Somewhere Over The Rainbow
TTITLE8=Catherine Britt - Lucky Girl
TTITLE9=Catherine Britt - You're The One I Love
TTITLE10=Catherine Britt - Drive In Movie
TTITLE11=Catherine Britt - Bruised
TTITLE12=Catherine Britt - The Simple Life
TTITLE13=Catherine Britt - Swingin' Door 
EXTD=YEAR: 2008
EXTT0=
EXTT1=
EXTT2=
EXTT3=
EXTT4=
EXTT5=
EXTT6=
EXTT7=
EXTT8=
EXTT9=
EXTT10=
EXTT11=
EXTT12=
EXTT13=
PLAYORDER=
